<mxfile host="app.diagrams.net" agent="Mozilla/5.0 (Windows NT 10.0; Win64; x64) AppleWebKit/537.36 (KHTML, like Gecko) Chrome/128.0.0.0 Safari/537.36" version="24.7.13">
  <diagram name="1 oldal" id="0HG7PGVHbc-jgx_Cyf4J">
    <mxGraphModel dx="989" dy="538" grid="0" gridSize="10" guides="1" tooltips="1" connect="1" arrows="1" fold="1" page="1" pageScale="1" pageWidth="827" pageHeight="1169" math="0" shadow="0">
      <root>
        <mxCell id="0" />
        <mxCell id="1" parent="0" />
        <mxCell id="3P6uZzZan39xuhU4Ki90-17" value="" style="edgeStyle=orthogonalEdgeStyle;rounded=0;orthogonalLoop=1;jettySize=auto;html=1;" parent="1" source="3P6uZzZan39xuhU4Ki90-1" target="3P6uZzZan39xuhU4Ki90-2" edge="1">
          <mxGeometry relative="1" as="geometry" />
        </mxCell>
        <mxCell id="3P6uZzZan39xuhU4Ki90-1" value="START" style="ellipse;whiteSpace=wrap;html=1;" parent="1" vertex="1">
          <mxGeometry x="34" y="57" width="120" height="80" as="geometry" />
        </mxCell>
        <mxCell id="3P6uZzZan39xuhU4Ki90-16" value="" style="edgeStyle=orthogonalEdgeStyle;rounded=0;orthogonalLoop=1;jettySize=auto;html=1;" parent="1" source="3P6uZzZan39xuhU4Ki90-2" target="3P6uZzZan39xuhU4Ki90-3" edge="1">
          <mxGeometry relative="1" as="geometry" />
        </mxCell>
        <mxCell id="3P6uZzZan39xuhU4Ki90-2" value="Be: A[], B[], metszet" style="shape=parallelogram;perimeter=parallelogramPerimeter;whiteSpace=wrap;html=1;fixedSize=1;" parent="1" vertex="1">
          <mxGeometry x="194" y="63" width="120" height="60" as="geometry" />
        </mxCell>
        <mxCell id="3P6uZzZan39xuhU4Ki90-15" value="" style="edgeStyle=orthogonalEdgeStyle;rounded=0;orthogonalLoop=1;jettySize=auto;html=1;" parent="1" source="3P6uZzZan39xuhU4Ki90-3" target="3P6uZzZan39xuhU4Ki90-4" edge="1">
          <mxGeometry relative="1" as="geometry" />
        </mxCell>
        <mxCell id="3P6uZzZan39xuhU4Ki90-3" value="n = 0&lt;div&gt;m = 0&lt;/div&gt;" style="whiteSpace=wrap;html=1;aspect=fixed;" parent="1" vertex="1">
          <mxGeometry x="391" y="50" width="80" height="80" as="geometry" />
        </mxCell>
        <mxCell id="3P6uZzZan39xuhU4Ki90-9" value="" style="edgeStyle=orthogonalEdgeStyle;rounded=0;orthogonalLoop=1;jettySize=auto;html=1;" parent="1" source="3P6uZzZan39xuhU4Ki90-4" target="3P6uZzZan39xuhU4Ki90-5" edge="1">
          <mxGeometry relative="1" as="geometry" />
        </mxCell>
        <mxCell id="3P6uZzZan39xuhU4Ki90-25" value="" style="edgeStyle=orthogonalEdgeStyle;rounded=0;orthogonalLoop=1;jettySize=auto;html=1;" parent="1" source="3P6uZzZan39xuhU4Ki90-4" target="3P6uZzZan39xuhU4Ki90-24" edge="1">
          <mxGeometry relative="1" as="geometry" />
        </mxCell>
        <mxCell id="3P6uZzZan39xuhU4Ki90-4" value="n&amp;lt;A[]hossz" style="rhombus;whiteSpace=wrap;html=1;" parent="1" vertex="1">
          <mxGeometry x="391" y="183" width="80" height="80" as="geometry" />
        </mxCell>
        <mxCell id="3P6uZzZan39xuhU4Ki90-10" value="" style="edgeStyle=orthogonalEdgeStyle;rounded=0;orthogonalLoop=1;jettySize=auto;html=1;" parent="1" source="3P6uZzZan39xuhU4Ki90-5" target="3P6uZzZan39xuhU4Ki90-7" edge="1">
          <mxGeometry relative="1" as="geometry" />
        </mxCell>
        <mxCell id="3P6uZzZan39xuhU4Ki90-13" value="" style="edgeStyle=orthogonalEdgeStyle;rounded=0;orthogonalLoop=1;jettySize=auto;html=1;" parent="1" source="3P6uZzZan39xuhU4Ki90-5" target="3P6uZzZan39xuhU4Ki90-12" edge="1">
          <mxGeometry relative="1" as="geometry" />
        </mxCell>
        <mxCell id="3P6uZzZan39xuhU4Ki90-5" value="m&amp;lt;B[]hossz" style="rhombus;whiteSpace=wrap;html=1;" parent="1" vertex="1">
          <mxGeometry x="391" y="300" width="80" height="80" as="geometry" />
        </mxCell>
        <mxCell id="3P6uZzZan39xuhU4Ki90-11" value="" style="edgeStyle=orthogonalEdgeStyle;rounded=0;orthogonalLoop=1;jettySize=auto;html=1;" parent="1" source="3P6uZzZan39xuhU4Ki90-7" target="3P6uZzZan39xuhU4Ki90-8" edge="1">
          <mxGeometry relative="1" as="geometry" />
        </mxCell>
        <mxCell id="3P6uZzZan39xuhU4Ki90-19" value="" style="edgeStyle=orthogonalEdgeStyle;rounded=0;orthogonalLoop=1;jettySize=auto;html=1;" parent="1" source="3P6uZzZan39xuhU4Ki90-7" target="3P6uZzZan39xuhU4Ki90-18" edge="1">
          <mxGeometry relative="1" as="geometry" />
        </mxCell>
        <mxCell id="3P6uZzZan39xuhU4Ki90-7" value="a[n] = b[m]" style="rhombus;whiteSpace=wrap;html=1;" parent="1" vertex="1">
          <mxGeometry x="262" y="300" width="80" height="80" as="geometry" />
        </mxCell>
        <mxCell id="3P6uZzZan39xuhU4Ki90-8" value="&lt;div&gt;metszet = metszet + &quot;&amp;nbsp; &quot; + a[n]&lt;/div&gt;m++&lt;div&gt;&lt;br&gt;&lt;/div&gt;" style="rounded=0;whiteSpace=wrap;html=1;" parent="1" vertex="1">
          <mxGeometry x="135" y="200" width="120" height="60" as="geometry" />
        </mxCell>
        <mxCell id="3P6uZzZan39xuhU4Ki90-12" value="n++" style="rounded=0;whiteSpace=wrap;html=1;" parent="1" vertex="1">
          <mxGeometry x="493" y="310" width="120" height="60" as="geometry" />
        </mxCell>
        <mxCell id="3P6uZzZan39xuhU4Ki90-14" value="" style="endArrow=classic;html=1;rounded=0;exitX=0.25;exitY=0;exitDx=0;exitDy=0;entryX=1;entryY=1;entryDx=0;entryDy=0;" parent="1" source="3P6uZzZan39xuhU4Ki90-12" target="3P6uZzZan39xuhU4Ki90-4" edge="1">
          <mxGeometry width="50" height="50" relative="1" as="geometry">
            <mxPoint x="297" y="380" as="sourcePoint" />
            <mxPoint x="347" y="330" as="targetPoint" />
          </mxGeometry>
        </mxCell>
        <mxCell id="3P6uZzZan39xuhU4Ki90-18" value="m++" style="rounded=0;whiteSpace=wrap;html=1;" parent="1" vertex="1">
          <mxGeometry x="239" y="417" width="120" height="60" as="geometry" />
        </mxCell>
        <mxCell id="3P6uZzZan39xuhU4Ki90-20" value="" style="endArrow=classic;html=1;rounded=0;exitX=1;exitY=0;exitDx=0;exitDy=0;" parent="1" source="3P6uZzZan39xuhU4Ki90-18" target="3P6uZzZan39xuhU4Ki90-5" edge="1">
          <mxGeometry width="50" height="50" relative="1" as="geometry">
            <mxPoint x="297" y="380" as="sourcePoint" />
            <mxPoint x="347" y="330" as="targetPoint" />
          </mxGeometry>
        </mxCell>
        <mxCell id="3P6uZzZan39xuhU4Ki90-21" value="" style="endArrow=classic;html=1;rounded=0;entryX=0;entryY=0.5;entryDx=0;entryDy=0;" parent="1" source="3P6uZzZan39xuhU4Ki90-8" target="3P6uZzZan39xuhU4Ki90-4" edge="1">
          <mxGeometry width="50" height="50" relative="1" as="geometry">
            <mxPoint x="297" y="380" as="sourcePoint" />
            <mxPoint x="347" y="330" as="targetPoint" />
          </mxGeometry>
        </mxCell>
        <mxCell id="3P6uZzZan39xuhU4Ki90-24" value="END" style="ellipse;whiteSpace=wrap;html=1;" parent="1" vertex="1">
          <mxGeometry x="531" y="183" width="120" height="80" as="geometry" />
        </mxCell>
        <mxCell id="ySNR9f4qq2AxFZ10hmAl-1" value="I" style="text;html=1;align=center;verticalAlign=middle;whiteSpace=wrap;rounded=0;" vertex="1" parent="1">
          <mxGeometry x="391" y="265" width="60" height="30" as="geometry" />
        </mxCell>
        <mxCell id="ySNR9f4qq2AxFZ10hmAl-2" value="I" style="text;html=1;align=center;verticalAlign=middle;whiteSpace=wrap;rounded=0;" vertex="1" parent="1">
          <mxGeometry x="336" y="304" width="60" height="30" as="geometry" />
        </mxCell>
        <mxCell id="ySNR9f4qq2AxFZ10hmAl-3" value="I" style="text;html=1;align=center;verticalAlign=middle;whiteSpace=wrap;rounded=0;" vertex="1" parent="1">
          <mxGeometry x="174" y="286" width="60" height="30" as="geometry" />
        </mxCell>
        <mxCell id="ySNR9f4qq2AxFZ10hmAl-4" value="H" style="text;html=1;align=center;verticalAlign=middle;whiteSpace=wrap;rounded=0;" vertex="1" parent="1">
          <mxGeometry x="239" y="380" width="60" height="30" as="geometry" />
        </mxCell>
        <mxCell id="ySNR9f4qq2AxFZ10hmAl-5" value="H" style="text;html=1;align=center;verticalAlign=middle;whiteSpace=wrap;rounded=0;" vertex="1" parent="1">
          <mxGeometry x="448" y="340" width="60" height="30" as="geometry" />
        </mxCell>
      </root>
    </mxGraphModel>
  </diagram>
</mxfile>
